<?xml version="1.0" encoding="iso-8859-1"?>
<!-- Generator: Adobe Illustrator 16.0.0, SVG Export Plug-In . SVG Version: 6.00 Build 0)  -->
<!DOCTYPE svg PUBLIC "-//W3C//DTD SVG 1.1//EN" "http://www.w3.org/Graphics/SVG/1.1/DTD/svg11.dtd">
<svg version="1.1" id="Capa_1" xmlns="http://www.w3.org/2000/svg" xmlns:xlink="http://www.w3.org/1999/xlink" x="0px" y="0px"
	 width="29px" height="29px" viewBox="0 0 29 29" style="enable-background:new 0 0 29 29;" xml:space="preserve">
<g>
	<g>
		<path d="M19.684,13.471l-8.366-5.018c-0.943-0.566-1.715-0.129-1.715,0.971v10.152c0,1.1,0.771,1.537,1.715,0.971l8.366-5.018
			C20.626,14.963,20.626,14.037,19.684,13.471z"/>
		<path d="M25.469,2H3.531C1.584,2,0,3.416,0,5.156v18.688C0,25.584,1.584,27,3.531,27h21.938C27.416,27,29,25.584,29,23.844V5.156
			C29,3.416,27.416,2,25.469,2z M27,23.844C27,24.471,26.299,25,25.469,25H3.531C2.701,25,2,24.471,2,23.844V5.156
			C2,4.529,2.701,4,3.531,4h21.938C26.299,4,27,4.529,27,5.156V23.844z"/>
	</g>
</g>
<g>
</g>
<g>
</g>
<g>
</g>
<g>
</g>
<g>
</g>
<g>
</g>
<g>
</g>
<g>
</g>
<g>
</g>
<g>
</g>
<g>
</g>
<g>
</g>
<g>
</g>
<g>
</g>
<g>
</g>
</svg>
